<?xml version="1.0" encoding="UTF-8"?>
<svg id="Layer_1" xmlns="http://www.w3.org/2000/svg" version="1.1" viewBox="0 0 595.28 841.89">
  <!-- Generator: Adobe Illustrator 30.2.1, SVG Export Plug-In . SVG Version: 2.1.1 Build 1)  -->
  <defs>
    <style>
      .st0 {
        fill: #5b3729;
      }

      .st1 {
        fill: #9a6c4d;
      }

      .st2 {
        fill: #9d6d4d;
      }

      .st3 {
        fill: #9d6b4c;
      }

      .st4 {
        fill: #855d45;
      }

      .st5 {
        fill: #5c392a;
      }

      .st6 {
        fill: #936b54;
      }

      .st7 {
        fill: #a26f50;
      }

      .st8 {
        fill: #bb8965;
      }

      .st9 {
        fill: #fffefc;
      }

      .st10 {
        stroke: #5c392a;
      }

      .st10, .st11 {
        fill: none;
        stroke-linecap: round;
        stroke-linejoin: round;
        stroke-width: 7.64px;
      }

      .st12 {
        fill: #5c382a;
      }

      .st13 {
        fill: #fdfaf9;
      }

      .st14 {
        fill: #865e46;
      }

      .st15 {
        fill: #d6a580;
      }

      .st16 {
        fill: #9d6b4e;
      }

      .st11 {
        stroke: #5b3829;
      }

      .st17 {
        fill: #bb8c67;
      }

      .st18 {
        fill: #b17f5b;
      }

      .st19 {
        fill: #5a372a;
      }

      .st20 {
        fill: #876047;
      }
    </style>
  </defs>
  <g id="Generative_Object">
    <g>
      <path class="st7" d="M418.12,351.66c-.33.42-.7.82-1.12,1.15.79,1.32,1.87,2.53,2.32,3.98,1.17,3.72,3.74,6.6,5.53,10-1.97-.09-5.43,3.23-8.19-.43-64.01,57.87-171.48,59.1-239.19,1.05-2.25-1.93-5.57,2.71-7.4-.63,1.79-3.35,4.1-6.32,5.17-10.03.47-1.63,2.05-2.8,3.1-4.19-.26-.43-.6-.82-.96-1.17.36.35.69.74.96,1.17,5.63,9.15,42.29,24.21,53.07,26.93.85.21,2.63,1.72,3.46.3.44-.75.24-1.28,1.17-3.35,41.02,9.35,81.69,8.43,122.7.25,3.54,2.95,6.72,1.24,10.24.43,17.62-4.02,33.79-13.14,48.01-24.32.42-.33.79-.72,1.12-1.15Z"/>
      <path class="st4" d="M342.45,667.24c6.63-5.53,15.8-8.97,21.51-15.52-.6-.78,3.05-.99,4.99-1.07,1.19-.05-.26,1.62.85,3.61,9.2-1.02,16.47-7.94,25.52-7.77l7.69.14c12.91.23,25.89-7.03,38.84-5.17,23.65,3.39,41.2,22.31,36.65,31.29-1.8,3.55-5.37,7.19-9.9,7.18l-113.63-.47c-3.22-2.72-4.83-5.36-7.71-6.86-1.95-1.02-3.5-3.76-4.83-5.36Z"/>
      <path class="st4" d="M260.03,672.4l-1.36,1.64-28.78,5.35-103.92.62c-3.9.02-7.1-2.95-8.75-5.76-5.75-9.81,10.21-31.85,40.57-32.01,9.47-.05,19.33-.82,27.94,3.86,5.14,2.8,10.5-.25,16.34,1.53l21.7,6.6,3.7.16c1.12.05,4.79-.12,3.78-2.38,6.82,10.09,17.6,15.39,28.78,20.39Z"/>
      <path class="st16" d="M193.44,197.89c-.14.54-.33,1.06-.51,1.59.18-.53.36-1.05.51-1.59-1.95-1.06-4.31-1.71-5.82-3.22-27.69-27.66-24.52-78.79-3.98-93.22.53-.06,2.7,2.09,2.62,3.24-.06.99-2.87,2.12-1.1,4.89,13.26-5.47,21.5,2.56,27.17,7.44,7.54,6.48,14.05,14.92,16.2,26.33-16.03,15.76-29.49,33.53-35.09,54.53Z"/>
      <path class="st16" d="M419.53,111.11c13.98,26.49,9.18,67.31-14.4,83.16l-4.19.69c-.79-3.57-1.65-8.4-4.07-11.95-12.25-17.94-17.21-27.42-32.99-42.01,5.25-8.24,9.55-17.05,16.93-22.52,2.46-1.82,2.04-5.51,7.7-4.8,5.08.63,3.65-11.32,23.18-2.7,2.33,0,2.71,1.17,3.52.75,1.35-.71,4.02-.7,3.73-2.11.27.45.34,1.01.59,1.48Z"/>
      <g>
        <path class="st8" d="M424.85,366.78c16.63,31.5,24.83,66.34,26.51,102.74,38.06,54.57,31.35,116.07-7.22,165.7-1.29,1.66-1.53,4.15-2.28,6.23-12.95-1.86-25.92,5.4-38.84,5.17l-7.69-.14c-9.05-.16-16.32,6.75-25.52,7.77-1.11-2,.33-3.66-.85-3.61-1.94.08-5.58.29-4.99,1.07-5.71,6.56-14.89,9.99-21.51,15.52-4.86,4.05-10.99,8.63-17.45,9.63-20.94,3.24-41.28,4.17-60.52-2.21-.42-.14-.73-.61-1.16-.8l-3.28-1.47c-11.18-4.99-21.96-10.3-28.78-20.39,1.01,2.26-2.66,2.43-3.78,2.38l-3.7-.16-21.7-6.6c-5.84-1.78-11.2,1.27-16.34-1.53-8.61-4.69-18.47-3.91-27.94-3.86-.03-3.67-3.51-4.95-5.6-7.2-34.36-37.13-48.46-95.71-23.49-140.24l14.99-26.72c1.16-35.8,9.87-70.49,26.37-101.29,1.83,3.34,5.15-1.3,7.4.63,67.71,58.04,175.19,56.81,239.19-1.05,2.76,3.65,6.22.33,8.19.43Z"/>
        <path class="st15" d="M329.68,476.14c-11.56,12.54-23.43,26.79-24.2,44.75-.28,6.38-1.12,13.49,3.88,16.9.38.26.74.56,1.04.9-.31-.34-.66-.64-1.04-.9-2.21.66-4.27,1.31-6.88,1.47-.09,8.39,1.67,15.55,6.73,20.73,5.37,5.5,13.08,7.77,21.47,7.51,29.3-.9,30.31-35.9,51.68-39.83,6.89,11.11,4.59,62.8,2.89,74.1l-.89,5.91c-6.05-2.51-11.09,1.88-15.09,6.17-34.09,36.5-111.53,36.11-147.34-1.34-.91,5.01-4.98,4.84-8.12,7-.85-4.16-4.14-8.9-2.96-13.3s-.35-3.79-1.02-7.04c-4.97-23.94-5.28-47.62.69-72.15,11.17,3.75,17.71,12.63,23.5,22.07,9.44,15.38,27.38,23.44,44.2,15.2,10.26-5.02,14.3-17.4,13.17-27.85-2.71-.97-4.46.43-6.28-.76l5.95-8.57c-2.29-16.34-9.07-31.14-19.01-43.57l-1.18-1.48c-9.05-11.32-21.06-20.41-26.6-33.99-.77-4.58,5.17-2.38,7.08-4.41,24.18-25.59,60.89-28.27,86.27-3.82,3.93,3.79,8.11,6.76,13.64,5.27-4.43,11.8-13,21.73-21.58,31.03Z"/>
        <path class="st18" d="M382.35,527.66c-21.37,3.93-22.38,38.93-51.68,39.83-8.39.26-16.1-2.01-21.47-7.51-5.06-5.18-6.82-12.34-6.73-20.73,2.61-.16,4.67-.81,6.88-1.47.38.26.74.56,1.04.9,5.65,6.26,15.38,10.49,23.86,6.37,18.74-9.11,14.56-21.73,24.38-29.89.49-.4.94-.85,1.48-1.18,19.5-12.09,37.71-12.09,54.68-42.27.94,2.25,4.29,1.68,6.06,4.35-4.88,23.06-21.35,38.09-38.51,51.6Z"/>
        <path class="st20" d="M358.64,515.16c-9.82,8.17-5.65,20.78-24.38,29.89-8.49,4.13-18.21-.1-23.86-6.37-.31-.34-.66-.64-1.04-.9-5-3.41-4.16-10.52-3.88-16.9.78-17.95,12.64-32.21,24.2-44.75,2.34,1.94,1.59,4.36.26,7.42,21.16,2.21,25.18,15.97,30.19,30.41-.53.33-.99.78-1.48,1.18Z"/>
        <path class="st14" d="M272.04,483.53c9.94,12.43,16.71,27.23,19.01,43.57l-5.95,8.57c-2.41,3.47-5.88,11.03-11.37,9.52-5.78-1.59-11.09-2.28-16.99-3.09-10.17-1.39-13.09-23.18-22.24-28.42,4.25-1.26,2.07-4.87,2.45-7.65,2.01-14.67,16.39-23.93,30.45-21.87,2.24.33,2.92-.07,3.45-2.11l1.18,1.48Z"/>
      </g>
      <g>
        <path class="st17" d="M419.53,111.11c-.25-.47-.32-1.03-.59-1.48.29,1.41-2.39,1.4-3.73,2.11-.81.42-1.19-.75-3.52-.75-19.53-8.62-18.1,3.33-23.18,2.7-5.66-.71-5.24,2.98-7.7,4.8-7.38,5.46-11.68,14.28-16.93,22.52,15.78,14.59,20.74,24.07,32.99,42.01,2.42,3.54,3.28,8.38,4.07,11.95,3.47,15.57,11.68,29.22,21.9,42.62,19.04,24.99,24.65,57.75,13.11,86.88-4.26,10.75-11.44,18.9-17.83,27.18-.33.42-.7.82-1.12,1.15-14.21,11.18-30.39,20.3-48.01,24.32-3.52.8-6.7,2.51-10.24-.43-41.01,8.18-81.69,9.1-122.7-.25-.93,2.07-.74,2.6-1.17,3.35-.83,1.42-2.61-.09-3.46-.3-10.78-2.72-47.43-17.78-53.07-26.93-.26-.43-.6-.82-.96-1.17-14.35-14.1-23.53-32.39-24.28-53.31-1.83-51.23,26.41-58.07,39.83-98.6.18-.53.36-1.05.51-1.59,5.6-21.01,19.06-38.78,35.09-54.53-2.14-11.4-8.66-19.84-16.2-26.33-5.66-4.87-13.91-12.9-27.17-7.44-1.78-2.77,1.03-3.9,1.1-4.89.07-1.16-2.09-3.3-2.62-3.24,2.86-2.01,6.72-6.89,10.59-7.76,25.66-2.51,48.12,7.93,63.8,28.15l61.48.41c3.53.02,6.49,3.7,9.31,2.9,10.67-3.01,26.75-32.19,61.54-31.16,11.89.35,22.93,6.13,28.58,15.64.27.45.34,1.01.59,1.48Z"/>
        <path class="st2" d="M280.37,336.34c20.59,12.3,28.24-1.86,37.36,1.09.95.31,1.13,2.88.22,3.97-11.04,13.24-30.45,13.75-41.73.66-1.24-1.44-1.05-3.2-.7-4.23.49-1.4,3.24-2.44,4.84-1.49Z"/>
        <path class="st1" d="M367.9,196.78c-4.7,6.82-8.37-7.53-26.71-6.86-2.46.09-4.18-1.45-4.88-2.77-1.09-2.06.03-6.25,3.11-7.03,14.84-3.75,32.13,11.35,28.48,16.65Z"/>
        <path class="st3" d="M256.71,186.25c-1.84,8.23-11.5-1.07-23.96,10.3-2.01,1.83-3.81,2.41-5.74,1.3-7.33-4.22,10.45-21.89,26.75-17.56,3,.8,3.33,4.27,2.95,5.97Z"/>
        <g>
          <path class="st19" d="M350.89,304.04c-12.76,18.73-33.46,28.87-54.26,15.47-11.58,8.05-25.05,7.66-37.02,1.14-7.52-4.09-11.69-10.3-17.65-16.6-.77-.81-3.23,2.4-4.14,2.19-1.21-.28-4.32-.19-4.03-3.1.75-7.45,8.25-12.68,15.39-13.23,2.51-.19,2.6,2.22,3.32,2.94.93.94-1.98,3.52-1.26,4.61,8.19,12.39,23.87,22.5,37.25,13.63,2.26-1.5,4.48-7.63,1.65-10.55-16.89-6.95-30.33-24.71-21.4-43.14,7.42-15.31,49.54-15.9,56.61,1.5s-5.35,34.18-21.47,41.39c-2.89,1.29-1.99,8.77-.17,10.18,10.21,7.92,22.47,2.91,31.18-4.19,5.28-4.31,6.3-9.08,8.09-14.44,5.39-4.91,16.66,4.8,16.59,10.86-.04,3.49-2.17,3.27-3.23,3.7-1.51.61-3.69-2.51-5.45-2.38Z"/>
          <path class="st6" d="M312.07,258.86c4.17,5.38-26.42,9.33-32.28.12,9.51-7.01,25.3-9.12,30.62-2.27l1.66,2.15Z"/>
        </g>
        <g>
          <path class="st12" d="M255.58,244.94c-5.57,4.86-11.01-8.78-37.08-7.65-1.74.07-3.79-1.68-3.83-2.87-.21-7.51,10.56,1.41,11.94-9.63,1.34-10.71,11.55-20.88,22.5-15.96,19.45,8.75,4.49,37.83,6.47,36.11Z"/>
          <path class="st9" d="M243.32,217.1c1.66-3.03,5.4-2.35,7.42-.92,1.5,1.07,1.72,3.93.14,6.37-.84,1.3-3.03,2.16-5.27,1.56s-4.17-3.59-2.29-7.02Z"/>
        </g>
        <g>
          <path class="st0" d="M378.7,233.01c4.35,7.74-14.33-.32-34.95,12.28-2.12,1.29-3.56,1.05-4.65.7.7.23-13.4-24.84,3.01-36.2,4.24-2.93,11.37-2.82,16.23.65,9.36,6.68,8.08,15.97,9.66,18.51s8.53.22,10.69,4.06Z"/>
          <path class="st13" d="M352.58,214.58c3.23-.92,5.68,1.01,5.97,3.64.22,2-.78,4.71-3.04,5.33-2.47.67-4.58-.38-5.44-1.87-1.39-2.42-.88-6.14,2.5-7.1Z"/>
        </g>
      </g>
    </g>
    <g>
      <path class="st11" d="M352.29,442.34l-1.04,2.77c-4.43,11.8-13,21.73-21.58,31.03-11.56,12.54-23.43,26.79-24.2,44.75-.28,6.38-1.12,13.49,3.88,16.9.38.26.74.56,1.04.9,5.65,6.26,15.38,10.49,23.86,6.37,18.74-9.11,14.56-21.73,24.38-29.89.49-.4.94-.85,1.48-1.18,19.5-12.09,37.71-12.09,54.68-42.27,2.56-4.56,4.09-9.52,5.3-14.65"/>
      <path class="st5" d="M246.79,446.8c.1-.18.23-.56.22-.99,0-.43-.13-.78-.18-.87-.12-.17.17.19.72,1.15,0,0,1.28,2.85,1.28,2.85,4.31,8.74,11.31,15.55,17.96,22.7,8.59,9.09,16.15,19.22,21.15,30.76,3.39,7.69,5.72,15.85,6.88,24.17.14.99-.12,1.95-.64,2.71-2.19,3.12-6.72,9.65-8.75,12.91-2.68,4.2-7.41,8.39-13.04,6.6-.32-.07-1.44-.39-1.79-.46-4.98-1.25-10.18-1.78-15.33-2.63-10.34-2.67-13.38-16.76-18.62-24.36-1.21-1.83-2.37-3.31-4.06-4.35,0,0-2.22-1.22-2.22-1.22-20.54-10.92-38.3-15.74-50.9-37.71-3.66-6.32-6.33-13.01-8.72-19.73-.71-1.99.33-4.17,2.32-4.88,2.03-.73,4.27.39,4.92,2.45,2.26,6.35,4.76,12.6,8.07,18.31,3.35,5.68,7.43,10.8,12.37,14.99,10.99,9.3,25.39,13.81,37.95,21.15,6.01,3.61,8.88,10.66,11.82,16.35,2.23,4.08,5.01,11.31,9.71,11.69,5.55.75,11.31,1.57,16.8,3.09,2.63.5,5.57-5.75,7.25-8.02,0,0,5.94-8.55,5.94-8.55l-.64,2.71c-2.5-19.31-12.57-36.92-26.06-50.78-7.68-8.17-16.07-16.57-20.44-27.23.08.07-.3-.34-.85-1.43-.26-.55-.54-1.39-.54-2.32-.01-.94.26-1.81.57-2.45-.25-.63-.6-1.5-.41-2.18.35-.94,1.23-1.81,2.14-2.3.81-.38,2.83.82,3.17,1.96.45,2.06,1.1,4.02,1.96,5.91h0Z"/>
      <path class="st5" d="M262.58,677.7c-12.65-5.55-26.22-11.42-34.31-23.3,0,0-3.22-4.67-3.22-4.67-6.25-8.79-13.04-19.02-15.15-30.19-1.36-4.55-4.11-8.86-2.72-14.35-.29-1.53-.59-3.41-.8-5.05-.19-1.45-1.12-3.04-.34-4.43.16-.28.4-.56.73-.82,1.12-1.04,2.5-2.3,4.06-1.06,1.72,1.05,1.86,2.79,2.1,4.65.42,2.9.96,5.83,1.64,8.69-.21.82-.15,2.01.33,3.53.54,1.88,1.74,4.47,2.38,6.78,2.05,10.53,7.77,18.91,14.06,27.87,0,0,3.25,4.71,3.25,4.71,2.97,4.32,6.83,7.74,11.27,10.66,6.09,3.99,13.1,7,19.81,9.96,4.54,2.13,1.66,8.89-3.06,7h0Z"/>
      <path class="st5" d="M433.79,673.34l-2.96-4.43c-1.01-3.2-4.22-7.27-6.73-8.96,3.11-7.22,10.33,1.47,13.09,4.72l2.96,4.43c2.67,4.29-3.43,8.35-6.36,4.24h0Z"/>
      <path class="st10" d="M403.03,646.62c12.91.23,25.89-7.03,38.84-5.17,23.65,3.39,41.2,22.31,36.65,31.29-1.8,3.55-5.37,7.19-9.9,7.18l-113.63-.47c-3.22-2.72-4.83-5.36-7.71-6.86"/>
      <path class="st5" d="M389.02,602.33c-.42,3.16-1.07,7.18-1.67,10.25-3.2,15.67-10.54,30.48-21.22,42.41-5.95,6.42-15.22,10.2-21.08,15.06-2.64,2.19-5.49,4.44-8.65,6.36-3.16,1.91-6.72,3.59-10.81,4.24-20.81,3.17-42.55,4.48-62.95-2.63-1.74-.88-3.78-.03-6.08.3,0,0-8.66,1.61-8.66,1.61l-17.32,3.22c-.22.04-.46.06-.67.06,0,0-101.24.6-101.24.6h-1.58c-1.88.11-4.57-.24-6.27-1.16-14.76-7.96-7.95-23.96,2.28-32.37,9.64-8.17,22.29-11.8,34.75-11.86,9.9-.11,20.5-.71,29.72,4.33,0,0-1.83-.46-1.83-.46h1.48c3.36,1.12,8.67,1.96,8.87,6.2-.04,2.01-2.21,3.21-4.49,2.61-.75-.21-3.43-.91-4.38-1.16h-1.48c-.66,0-1.28-.17-1.83-.46-6.85-3.71-14.96-3.54-22.83-3.43-11.67-.3-24,2.34-33.04,10.07-4.31,3.65-10.57,11.42-7.15,16.79,1.6,2.21,3.46,3.55,6.15,3.29,0,0,1.58,0,1.58,0,.09.02,103.42-.7,100.57-.54,0,0,17.32-3.22,17.32-3.22l8.66-1.61c3.64-.73,7.46-1.54,11.14.51,8.84,2.98,26,5.16,38.22,4,6.62-.38,13.26-1.2,19.89-2.21,2.65-.41,5.39-1.62,8.02-3.22,2.65-1.61,5.16-3.57,7.75-5.72,2.91-2.38,5.96-4.25,8.87-6.03,5.71-3.37,10.75-6.68,14.56-12.01,8.03-10.2,13.66-22.33,16.25-35.05.69-2.94,1.08-6.89,1.6-9.87.85-3.01-.03-6.79,2.06-9.42,1.31-1.48,3.77-1.82,5.15-.22,1.83,1.69,2.01,3.32,1.29,5.54-.54,1.7-.7,3.54-.94,5.23h0Z"/>
      <path class="st10" d="M175.24,356.75c-1.07,3.71-3.38,6.68-5.17,10.03-16.5,30.8-25.22,65.48-26.37,101.29l-14.99,26.72c-24.97,44.54-10.88,103.11,23.49,140.24"/>
      <path class="st5" d="M214.83,114.13c8.57,7.23,15.45,17.26,17.46,28.52.24,1.29-.21,2.57-1.08,3.43-8.67,8.55-16.66,17.75-23.03,27.91-4.74,7.61-8.51,15.74-10.88,24.35-.18.61-.56,1.81-.75,2.41-.49,1.33-1.99,5.36-2.51,6.77-1.75,4.26-4.01,8.92-6.25,12.98-6.1,10.94-13.93,20.57-20.26,31.22-1.22,2.33-3.07,5.51-4.02,7.92-1.19,2.28-2.26,5.8-3.16,8.23-.36,1.4-1.3,5.05-1.65,6.41-.23,1.41-.83,5.12-1.08,6.57-.28,2.96-.54,5.93-.68,8.91-.01,5.21-.1,10.42.65,15.58,2.21,16.12,10.26,31.12,21.75,42.57.79.76,1.65,1.65,2.26,2.63.61.88,1.32,1.61,2.18,2.35,9.26,7.35,20.73,12.15,31.6,16.84,5.52,2.24,11.39,4.56,17.04,6.09,4.79,1.37,3.06,8.52-1.94,7.39-12.31-3.55-23.74-8.61-35.2-14.25-5.83-3.04-11.37-5.95-16.54-10.31-1.35-1.13-2.71-2.61-3.69-4.14-.05-.14-1.01-1.04-1.15-1.22-7.41-7.47-13.61-16.18-17.86-25.85-2.99-6.67-4.99-13.81-6.04-21.05-.81-5.58-.75-11.27-.72-16.88.15-3.2.42-6.42.73-9.61.26-1.62.93-5.63,1.18-7.19.37-1.49,1.42-5.55,1.82-7.09,1.03-2.69,2.18-6.58,3.49-9.11,3.13-7.2,7.69-14.15,12.13-20.58,7.06-10.04,13.74-19.98,18.3-31.29.6-1.64,2.11-5.56,2.65-7.27,2.64-9.68,6.78-18.98,12.1-27.44,6.81-10.85,15.2-20.48,24.16-29.31l-1.08,3.43c-2.37-12.65-11.81-23.66-23.07-29.68-3.85-1.93-3.38-3.89-.55-4.43,4.07-.79,10.05,1.59,13.67,4.18h0Z"/>
      <path class="st10" d="M419.32,356.79c1.17,3.72,3.74,6.6,5.53,10,16.63,31.5,24.83,66.34,26.51,102.74,38.06,54.57,31.35,116.07-7.22,165.7"/>
      <path class="st5" d="M383.08,121.57c-7.06,5.36-11.08,13.9-15.98,21.5,0,0-.63-4.86-.63-4.86,9.25,8.37,17.45,18.4,24.25,28.8,2.46,3.65,6.55,9.85,8.97,13.38,3.58,5.03,4.2,10.92,5.61,16.38,3.4,12.88,10.19,24.45,18.23,35.38,16.23,20.44,24.58,45.25,21.57,71.4-1.19,9.5-3.74,19.15-8.05,27.72-4.17,8.35-10.76,16.08-16.46,23.39-.28.38-.66.64-1,.97-14.71,11.59-31.28,20.97-49.76,25.24-2.45.6-5.04,1.09-7.58,1.4-.89.11-1.53-.45-1.93-1.27-2.56-5.83,3.92-6.1,7.81-7.58,16.96-3.89,32.73-12.78,46.41-23.54,0,0,.13-.1.13-.1.09-.08.16-.14.24-.24,5.26-6.83,11.49-14.08,15.33-21.75,6.45-13.11,8.76-28.2,7.45-42.72-1.44-14.65-6.73-28.9-14.98-41.07,0,0-2.57-3.6-2.57-3.6-10.41-13.62-19.9-29.05-23.31-46.34-.77-3.46-1.44-6.33-3.12-8.89-1.16-1.73-3.08-4.54-4.21-6.24-4.85-7.21-10.25-15.64-15.8-22.17-3.81-4.58-8-8.84-12.42-12.94-1.38-1.27-1.61-3.33-.63-4.86,5.24-8.15,9.62-17.36,17.88-23.53,3.59-2.25,10.66-7.32,14.85-4.59.46,1.67.82,3.87-1.29,4.69-3.17,1.37-6.42,3.64-9.01,6.04h0Z"/>
      <path class="st10" d="M187.62,194.67c-27.69-27.66-24.52-78.79-3.98-93.22,2.86-2.01,6.72-6.89,10.59-7.76,25.66-2.51,48.12,7.93,63.8,28.15l61.48.41c3.53.02,6.49,3.7,9.31,2.9,10.67-3.01,26.75-32.19,61.54-31.16,11.89.35,22.93,6.13,28.58,15.64.27.45.34,1.01.59,1.48,13.98,26.49,9.18,67.31-14.4,83.16"/>
    </g>
  </g>
</svg>