<?xml version="1.0" encoding="UTF-8"?>
<svg id="Layer_1" xmlns="http://www.w3.org/2000/svg" version="1.1" viewBox="0 0 595.28 841.89">
  <!-- Generator: Adobe Illustrator 30.2.1, SVG Export Plug-In . SVG Version: 2.1.1 Build 1)  -->
  <defs>
    <style>
      .st0 {
        fill: #ee4d65;
        stroke: #501f15;
        stroke-width: 8.82px;
      }

      .st0, .st1, .st2 {
        stroke-linecap: round;
        stroke-linejoin: round;
      }

      .st3 {
        fill: #753f25;
      }

      .st4 {
        fill: #723e24;
      }

      .st1 {
        stroke: #784025;
        stroke-width: 3.03px;
      }

      .st1, .st2 {
        fill: none;
      }

      .st5 {
        fill: #c59771;
      }

      .st6 {
        fill: #7b4226;
      }

      .st7 {
        fill: #bb8b67;
      }

      .st8 {
        fill: #fffffe;
      }

      .st9 {
        fill: #fff;
      }

      .st10 {
        fill: #ac7954;
      }

      .st11 {
        fill: #fffefc;
      }

      .st12 {
        fill: #b98964;
      }

      .st13 {
        fill: #763f26;
      }

      .st14 {
        fill: #763f28;
      }

      .st2 {
        stroke: #763f28;
        stroke-width: 5.3px;
      }
    </style>
  </defs>
  <path class="st0" d="M268.31,762.97c-63-66.88-115.2-138.4-161.11-215.86-22.59-38.12-39.59-75.5-53.83-117.01-30.19-88.04-16.45-183.5,40.43-258.52,48.77-64.32,124.46-100.99,202.67-101.72,77.34-.72,152.76,33.2,202.6,94.63,61.32,75.57,77.08,174.19,46.06,265.66-39.25,115.76-131,242.68-213.84,331.55-16.7,17.92-45,20.37-62.99,1.26Z"/>
  <g>
    <path class="st9" d="M424.4,518.54c-95.69,79.56-229.52,52.32-295.3-47.9-53.81-82-51.02-188.57,7.8-266.77,38.26-50.87,98.16-80.17,160.52-80.4,63.01-.23,122.46,28.68,161.6,79.45,74.24,96.33,60.28,236.72-34.62,315.62Z"/>
    <path class="st10" d="M449.78,423.87c-15.21,87.38-164.35,127.49-261.35,60.44-23.57-16.3-37.51-40.45-40.55-65.75.87-2.62,4.88-.24,7.14.23,1.54.33.56,2.94,3.4,4.87,11.2,25.75,29.62,43.69,54.79,55.38,51.52,23.94,110.47,25.89,162.4,3.74,28.47-12.14,50.69-31.22,63.75-58.64,2.25-1.57,9.69-1.78,10.42-.28Z"/>
    <path class="st7" d="M416.09,291.12l-14.67-.24c-1.22-5.57-12.74-20.28-7.73-21.35-.19-11.65-16.27-17.71-19.51-26.99-3.88-17.56,17.89-29.56,31.45-33.49,5.74-1.67,6.9-7.21,10.72-9.4l1.44-1.44c.02.33.46-.03,0,0s-.02.63,0,0c25.61,24.64,20.28,67.83-1.71,92.91Z"/>
    <path class="st12" d="M180.06,200.28c-.52.34-1.12.56-1.72.78l1.74,2.36c13.14,6.02,47.27,15.39,45.45,38.21-.37,4.67-5.34,5.25-6.86,7.04l-9.85,11.61c-7.93,9.35-8.49,23.38-16.06,33.83-3.59-1.32-6.33-1.14-8.07.5-17.57-20.62-25.67-47.81-18.15-75.14,1.72-6.25,5.89-10.84,8.77-15.61.42-.7.75-1.49,1.32-2.05.42-.41,1.11-.55,1.72-.78s1.2-.44,1.72-.78Z"/>
    <g>
      <path class="st5" d="M417.8,198.21c.46-.03.02.33,0,0l-1.44,1.44c-3.82,2.18-4.99,7.73-10.72,9.4-13.56,3.94-35.32,15.94-31.45,33.49,3.24,9.28,19.32,15.34,19.51,26.99-5.02,1.06,6.51,15.78,7.73,21.35l14.67.24c-4.28,4.88-4.74,10.39-.69,16.99,6.45,10.51,5.56,24.86,12.8,35.03,17.44,24.48,26.63,51.68,21.58,80.72-.73-1.5-8.17-1.29-10.42.28-13.06,27.42-35.28,46.5-63.75,58.64-51.93,22.14-110.88,20.19-162.4-3.74-25.17-11.69-43.59-29.63-54.79-55.38-2.84-1.94-1.86-4.55-3.4-4.87-2.26-.48-6.27-2.85-7.14-.23-3.3-27.42,6.42-51.96,22.21-75.55,1.71-2.56,18.24-44.09,14.59-48.38,1.74-1.64,4.48-1.82,8.07-.5,7.58-10.45,8.13-24.48,16.06-33.83l9.85-11.61c1.52-1.79,6.48-2.37,6.86-7.04,1.82-22.83-32.31-32.2-45.45-38.21l-1.74-2.36c.59-.22,1.2-.44,1.72-.78,25.59-16.82,58.14,3.15,77,24.95,25.61-8.87,51.51-8.27,76.95-3,17.84,3.7,26.52-28.73,67.8-28.4,5.38.04,9.59,3.5,14.04,3.87l1.96.52Z"/>
      <path class="st13" d="M298.98,446.18c-41.52,19.48-57.96-20.84-63.59-20.03-2.08.3-3.53,3.94-5.31,2.8-1.36-.87-4.11-2.22-3.44-5.32,2.01-9.3,12.68-16.1,21.79-12.4,3.01,1.22,1.51,6.21-2.04,8.07,7.13,14.83,22.6,23.76,39.59,21.62,3.9-.49,5.96-4.72,6.04-7.33.15-4.65-2.39-5.75-6.77-8.06-12.35-6.51-25.47-25.86-14.85-40.42,11.57-15.87,38.48-13.88,52.6-4.43,8.17,5.46,9.03,13.88,6.71,21.98-7.25,25.26-26.6,20.73-24.43,32.6,2.04,11.14,36.23,6.43,45.37-15.76-1.66-1.56-3.32-2.47-3.59-3.73-.36-1.71-.29-5.08,2.58-5.55,8.75-1.43,17.1,3.65,20.3,11.73,1.21,3.04.15,5.7-1.68,6.62-2.34,1.18-4.29-.48-7.01-3.71-14.73,18.68-33.98,35.8-62.25,21.32ZM315.14,388.02c-10.04,5.82-22.31,5.12-33.47.92,9.43-8.66,22.95-7.84,33.47-.92Z"/>
      <g>
        <path class="st13" d="M373.97,361.19c-8.59,4.03-19.57,4.93-27.35,11.02-11.82-12.28-10.16-38.02,2.97-42.21,5.19-1.66,12.83-1.21,17.13,3.25,5.54,5.75,11.15,19.1,7.25,27.94Z"/>
        <path class="st8" d="M356.41,338.33c2.07-3.76,7-1.96,8.78-.37s2.03,4.58.21,6.94c-1.6,2.07-4.26,3.11-6.13,2.44-3.53-1.27-5.13-4.87-2.85-9.01Z"/>
      </g>
      <g>
        <path class="st4" d="M250.35,371.97c-8.93-5.23-17.5-8.2-27.54-10.44-3.76-11.36,2.8-30.14,14.59-32.22,6.94-1.22,13.79,1.04,17.14,6.89,6.51,11.35,4.64,24.75-4.2,35.77Z"/>
        <path class="st11" d="M241.45,338.02c2.67-3.8,7.34-.99,8.79,1.28,1.14,1.8,1.23,4.67-1.4,7.22-1.41,1.37-3.97,2.15-6.3.55s-3.93-5-1.08-9.05Z"/>
      </g>
    </g>
  </g>
  <g>
    <path class="st6" d="M370.27,311.91l-14.4-6.55c-.83-.35-6.19-.34-4.45-1.78.3-.29,1.22-1.15,1.65-1.55,1.25-1.04,2.81-.67,4.37-.12l14.4,6.55c1.48,1.45,2.89,3.3,3.54,5.21.17.88-.99.98-1.99.89-.7-.1-1.4-.36-1.84-.93-.28-.54-.95-1.45-1.28-1.72h0Z"/>
    <path class="st3" d="M284.9,473.46c9.52,4.27,21.39,4.99,29.96-1.55,1.62-.73,3.58-1.55,4.73-2.81.12.03.38.52.63.79.25.29.44.06.47.33-.06,1.93-2.21,3.54-3.56,4.72-4.79,3.61-10.79,5.51-16.7,5.6-5.93.12-11.73-1.3-17.04-3.61-1.6-.96-3.5-2.3-4.68-3.85-.13-1.22-.02-1.75,1.28-2.87,1.46,1.42,3.1,2.52,4.92,3.25h0Z"/>
    <line class="st1" x1="241.23" y1="303.94" x2="225.7" y2="310.88"/>
    <path class="st2" d="M417.8,198.21c25.61,24.64,20.28,67.83-1.71,92.91-4.28,4.88-4.74,10.39-.69,16.99,6.45,10.51,5.56,24.86,12.8,35.03,17.44,24.48,26.63,51.68,21.58,80.72-15.21,87.38-164.35,127.49-261.35,60.44-23.57-16.3-37.51-40.45-40.55-65.75-3.3-27.42,6.42-51.96,22.21-75.55,1.71-2.56,18.24-44.09,14.59-48.38-17.57-20.62-25.67-47.81-18.15-75.14,1.72-6.25,5.89-10.84,8.77-15.61l1.32-2.05"/>
    <path class="st2" d="M176.62,201.84l1.72-.78c.59-.22,1.2-.44,1.72-.78,25.59-16.82,58.14,3.15,77,24.95,25.61-8.87,51.51-8.27,76.95-3,17.84,3.7,26.52-28.73,67.8-28.4,5.38.04,9.59,3.5,14.04,3.87.67.06,1.31.32,1.96.52"/>
    <path class="st14" d="M177.73,199.43c14.77,6.97,31.6,11.1,43.3,23.34,4.96,5.13,8.06,12.67,7.02,19.92-.3,2.23-1.99,4.45-3.81,5.58-1.22.87-2.53,1.34-3.55,2.12-3.21,2.72-6.26,5.69-8.34,9.4-.74,1.53-.95,3.18-2.51,4.19-1.06.72-2.93.32-3.51-.96-1.29-6.94,5.96-11.83,10.32-16.06,1.74-1.79,3.02-1.97,4.61-3.07.9-.63,1.38-1.12,1.58-2.14,1.11-9.05-5.47-16.52-12.64-21.25-10.46-7.16-23.19-10.85-34.67-16.26-3.13-1.5-1.03-6.21,2.21-4.82h0Z"/>
    <path class="st2" d="M417.8,198.21c-.46.51-.86,1.11-1.44,1.44-3.82,2.18-4.99,7.73-10.72,9.4-13.56,3.94-35.32,15.94-31.45,33.49,3.24,9.28,19.32,15.34,19.51,26.99"/>
  </g>
</svg>